<svg data-v-6805eed4="" version="1.0" width="100%" height="100%" viewBox="70.178 16.659 196.35 212.742" preserveAspectRatio="xMidYMid meet" color-interpolation-filters="sRGB" style="margin: auto;" xmlns="http://www.w3.org/2000/svg">
    <g data-v-6805eed4="" fill="#1A1A1A" class="iconlinesvg-g iconlinesvg" transform="matrix(3.550091, 0, 0, 3.550091, 105.906708, 24.968019)" style="">
      <g class="tp-name" transform="translate(0,0)">
        <g transform="translate(0, 0)">
          <g>
            <g class="imagesvg">
              <g>
                <rect fill="#1A1A1A" fill-opacity="0" stroke-width="2" x="0" y="0" width="32.560884422110554" height="54.90966866576258" class="image-rect"></rect>
                <svg x="0" y="0" width="32.560884422110554" height="54.90966866576258" filtersec="colorsb2181203766" class="image-svg-svg primary" style="overflow: visible;">
                  <svg xmlns="http://www.w3.org/2000/svg" viewBox="-0.004999443423002958 0 60.185001373291016 101.4941177368164">
                    <title>J5</title>
                    <g data-name="图层 2">
                      <g data-name="Layer 1">
                        <path d="M52.68 5.81a4 4 0 0 1 2.22-2.66 16 16 0 0 1 5.28-.89V0q-7 .33-20.08.33-12.89 0-19-.33v2.27a15.76 15.76 0 0 1 5.23.89 4 4 0 0 1 2.24 2.66 22.61 22.61 0 0 1 .58 6.18v31.16a17.56 17.56 0 0 1 23 0V12a23.65 23.65 0 0 1 .53-6.19z" fill="#1a1a1a"></path>
                        <path d="M29.15 43.16v18.57c7.67-2.83 15.33-1.85 23-1V43.12a17.56 17.56 0 0 0-23 0z" fill="#ed1c24"></path>
                        <path d="M52.15 60.75a11.49 11.49 0 0 0-23 .79v2.19q0 9.35-.11 13.75a66.72 66.72 0 0 1-.61 7.83A33.63 33.63 0 0 1 26.77 92 11.85 11.85 0 0 1 23 97.1a9.8 9.8 0 0 1-6.2 2 14.6 14.6 0 0 1-2-.11 10 10 0 0 0 4.95-3.54 8.5 8.5 0 0 0 1.63-5 7.44 7.44 0 0 0-2.71-6.22 11.79 11.79 0 0 0-7.47-2.13A12.75 12.75 0 0 0 3 84.51a7.66 7.66 0 0 0-3 6.36q0 5.64 5.7 8.46 4.37 2.16 12.67 2.16a43 43 0 0 0 14.8-2.41 30.71 30.71 0 0 0 11-6.58 22.78 22.78 0 0 0 6-9.5q2-6.3 2-20.24z" fill="#f7931e"></path>
                      </g>
                    </g>
                  </svg>
                </svg>
              </g>
            </g>
          </g>
        </g>
      </g>
    </g>
    <defs v-gra="od">
      <view id="view-1" viewBox="42.304 -9.633 263.243 263.243">
        <title>View 1</title>
      </view>
    </defs>
  </svg>