<svg xmlns="http://www.w3.org/2000/svg" color-interpolation-filters="sRGB" style="margin:auto" version="1.0" viewBox="0 0 340 250"><rect width="100%" height="100%" fill="#feffff" class="background"/><g fill="#1A1A1A" class="iconlinesvg-g iconlinesvg"><g class="tp-name"><g class="imagesvg" transform="translate(95 90.6)"><path fill="none" d="M0 0h32.6v54.9H0z" class="image-rect"/><svg width="32.6" height="54.9" class="image-svg-svg primary" style="overflow:visible"><svg xmlns="http://www.w3.org/2000/svg" viewBox="0 0 60.2 101.5"><g data-name="图层 2"><g data-name="Layer 1"><path fill="#1a1a1a" d="M52.7 5.8a4 4 0 0 1 2.2-2.7 16 16 0 0 1 5.3-.8V0q-7 .3-20.1.3-12.9 0-19-.3v2.3a15.8 15.8 0 0 1 5.2.9 4 4 0 0 1 2.3 2.6A22.6 22.6 0 0 1 29 12v31.2a17.6 17.6 0 0 1 23 0V12a23.6 23.6 0 0 1 .6-6.2z"/><path fill="#ed1c24" d="M29.1 43.2v18.5c7.7-2.8 15.4-1.8 23-1V43.1a17.6 17.6 0 0 0-23 0z"/><path fill="#f7931e" d="M52.1 60.8a11.5 11.5 0 0 0-23 .7v16a66.7 66.7 0 0 1-.7 7.8 33.6 33.6 0 0 1-1.6 6.7 11.8 11.8 0 0 1-3.8 5.1 9.8 9.8 0 0 1-6.2 2 14.6 14.6 0 0 1-2-.1 10 10 0 0 0 5-3.6 8.5 8.5 0 0 0 1.6-5 7.4 7.4 0 0 0-2.7-6.2 11.8 11.8 0 0 0-7.5-2.1A12.8 12.8 0 0 0 3 84.5 7.7 7.7 0 0 0 0 91q0 5.6 5.7 8.4 4.4 2.2 12.7 2.2A43 43 0 0 0 33.2 99a30.7 30.7 0 0 0 11-6.6 22.8 22.8 0 0 0 6-9.5q2-6.3 2-20.2z"/></g></g></svg></svg></g><path d="M162.1 104.9q-3.2-2-6.6-3-3.4-1-6.2-1-4 0-6.4 1.5-2.3 1.5-2.3 4.2 0 2.4 1.4 3.9t3.5 2.4q2 .9 5.8 2 4.6 1.5 7.5 2.8 2.8 1.3 4.8 3.8 2 2.6 2 6.8 0 4-2 6.9-2.2 2.9-6 4.5t-8.7 1.6q-5 0-9.8-2-4.7-2-8.2-5.2l2.8-5.4q3.3 3.2 7.3 5 4.1 1.6 8 1.6 4.5 0 7.1-1.7 2.7-1.8 2.7-4.9 0-2.4-1.5-4-1.4-1.5-3.6-2.4-2.2-1-5.9-2-4.5-1.4-7.4-2.7-2.8-1.3-4.8-3.8-2-2.6-2-6.7 0-3.7 2-6.5t5.7-4.2q3.6-1.5 8.4-1.5 4.1 0 8 1.2 4 1.2 7 3.2l-2.6 5.6ZM215.8 140.9H209l-4.8-11h-24l-4.7 11h-6.6l20.2-45.5h6.5l20.2 45.5ZM192.2 102l-9.5 22h19.1l-9.6-22ZM219 140.9V95.4h6.2v39.8H245v5.7h-26.2Z" data-gra="path-name"/></g><path d="m159.3 151.5 1.7 7.9h1.2l1.2-4.7.1-1 .2-.8h.1l.2.9.2.9 1.2 4.7h1.2l1.6-7.9h-1l-.8 4.3-.2 1.3-.2 1.3-.4-1.3c0-.5-.2-.9-.3-1.3l-1-4.3h-1l-1 4.3-.3 1.3-.3 1.3-.3-1.3-.2-1.3-.8-4.3Zm10.3 0v7.9h1v-7.9Zm3.1 0v7.9h1v-2.5l1.4-1.6 2.3 4h1.1l-2.8-4.8 2.5-3H177l-3.2 4v-4Zm7 0v7.9h1v-7.9Z" class="tp-slogan" data-gra="path-slogan"/></g></svg>